<svg width="14" height="14" viewBox="0 0 14 14" fill="none" xmlns="http://www.w3.org/2000/svg">
<g clip-path="url(#clip0_67_2493)">
<path d="M13.1337 8.75H13.1163C12.8865 8.75 12.6662 8.84127 12.5037 9.00372C12.3413 9.16617 12.25 9.38651 12.25 9.61625V11.8125C12.25 11.9285 12.2039 12.0398 12.1219 12.1219C12.0398 12.2039 11.9285 12.25 11.8125 12.25H2.1875C2.07147 12.25 1.96019 12.2039 1.87814 12.1219C1.79609 12.0398 1.75 11.9285 1.75 11.8125V2.1875C1.75 2.07147 1.79609 1.96019 1.87814 1.87814C1.96019 1.79609 2.07147 1.75 2.1875 1.75H6.13375C6.36349 1.75 6.58383 1.65873 6.74628 1.49628C6.90873 1.33383 7 1.11349 7 0.88375V0.86625C7 0.636506 6.90873 0.416172 6.74628 0.253719C6.58383 0.0912654 6.36349 0 6.13375 0H0.86625C0.636506 0 0.416172 0.0912654 0.253719 0.253719C0.0912654 0.416172 0 0.636506 0 0.86625L0 13.1337C0 13.3635 0.0912654 13.5838 0.253719 13.7463C0.416172 13.9087 0.636506 14 0.86625 14H13.1337C13.3635 14 13.5838 13.9087 13.7463 13.7463C13.9087 13.5838 14 13.3635 14 13.1337L13.9913 13.125H14V9.61625C14 9.38651 13.9087 9.16617 13.7463 9.00372C13.5838 8.84127 13.3635 8.75 13.1337 8.75Z" fill="#140A0A"/>
<path d="M10.9129 2.49905C8.42835 2.67624 6.51604 3.49174 5.21973 4.93199C4.21156 6.0667 3.61537 7.50816 3.52748 9.02349C3.51296 9.15341 3.52601 9.28494 3.56576 9.40948C3.60552 9.53402 3.6711 9.64877 3.75821 9.74625C3.84533 9.84373 3.95202 9.92174 4.07133 9.97518C4.19064 10.0286 4.31987 10.0563 4.45061 10.0564L4.49435 10.0521C4.69348 10.0303 4.87857 9.93906 5.01714 9.79441C5.15571 9.64976 5.2389 9.46093 5.2521 9.26105C5.31895 8.09138 5.76931 6.97631 6.53354 6.0883C7.4991 5.0243 8.98048 4.41268 10.9374 4.25518V4.37505H10.9129L10.8941 4.4923L9.88567 5.51037C9.72277 5.6755 9.63144 5.89813 9.63144 6.13008C9.63144 6.36204 9.72277 6.58467 9.88567 6.7498C9.96586 6.83115 10.0614 6.89575 10.1668 6.93985C10.2722 6.98394 10.3853 7.00665 10.4995 7.00665C10.6137 7.00665 10.7268 6.98394 10.8322 6.93985C10.9375 6.89575 11.0331 6.83115 11.1133 6.7498L13.7453 4.09243C13.9083 3.92728 13.9997 3.70456 13.9997 3.47249C13.9997 3.24043 13.9083 3.0177 13.7453 2.85255L11.1203 0.256866C11.0401 0.175581 10.9446 0.111037 10.8392 0.0669836C10.7339 0.0229298 10.6209 0.000244141 10.5067 0.000244141C10.3925 0.000244141 10.2795 0.0229298 10.1742 0.0669836C10.0688 0.111037 9.97329 0.175581 9.89311 0.256866C9.72997 0.421961 9.63848 0.644705 9.63848 0.876804C9.63848 1.1089 9.72997 1.33165 9.89311 1.49674L10.9129 2.49905Z" fill="#140A0A"/>
</g>
<defs>
<clipPath id="clip0_67_2493">
<rect width="14" height="14" fill="white"/>
</clipPath>
</defs>
</svg>
