<?xml version="1.0" encoding="UTF-8"?>
<svg version="1.1" xmlns="http://www.w3.org/2000/svg" width="1024" height="917">
<path d="M0 0 C48.51 0 97.02 0 147 0 C147 2.97 147 5.94 147 9 C156.24 9 165.48 9 175 9 C175 11.97 175 14.94 175 18 C180.94 18 186.88 18 193 18 C193 20.97 193 23.94 193 27 C198.94 27 204.88 27 211 27 C211 29.97 211 32.94 211 36 C213.97 36 216.94 36 220 36 C220 38.97 220 41.94 220 45 C226.27 45 232.54 45 239 45 C239 48.3 239 51.6 239 55 C241.97 55 244.94 55 248 55 C248 57.97 248 60.94 248 64 C250.97 64 253.94 64 257 64 C257 66.97 257 69.94 257 73 C323.33 73 389.66 73 458 73 C458 51.88 458 30.76 458 9 C460.97 9 463.94 9 467 9 C467 6.03 467 3.06 467 0 C497.36 0 527.72 0 559 0 C559 2.97 559 5.94 559 9 C562.3 9 565.6 9 569 9 C569 30.12 569 51.24 569 73 C608.27 73 647.54 73 688 73 C688 75.97 688 78.94 688 82 C690.97 82 693.94 82 697 82 C697 133.81 697 185.62 697 239 C575.89 239 454.78 239 330 239 C330 250.55 330 262.1 330 274 C451.11 274 572.22 274 697 274 C697 471.01 697 668.02 697 871 C694.03 871 691.06 871 688 871 C688 873.97 688 876.94 688 880 C427.63 880 167.26 880 -101 880 C-101 877.03 -101 874.06 -101 871 C-103.97 871 -106.94 871 -110 871 C-110 728.77 -110 586.54 -110 440 C-112.97 440 -115.94 440 -119 440 C-119 437.03 -119 434.06 -119 431 C-122.3 431 -125.6 431 -129 431 C-129 428.03 -129 425.06 -129 422 C-131.97 422 -134.94 422 -138 422 C-138 416.06 -138 410.12 -138 404 C-140.97 404 -143.94 404 -147 404 C-147 400.7 -147 397.4 -147 394 C-149.97 394 -152.94 394 -156 394 C-156 388.06 -156 382.12 -156 376 C-158.97 376 -161.94 376 -165 376 C-165 370.06 -165 364.12 -165 358 C-167.97 358 -170.94 358 -174 358 C-174 348.76 -174 339.52 -174 330 C-176.97 330 -179.94 330 -183 330 C-183.96548729 322.72820779 -184.14218901 315.6096752 -184.12939453 308.27929688 C-184.13114685 307.03422867 -184.13289917 305.78916046 -184.13470459 304.50636292 C-184.13833347 301.11588214 -184.13750844 297.72546296 -184.1343255 294.33498573 C-184.13177799 290.77178495 -184.13414607 287.20858664 -184.13571167 283.64538574 C-184.13752641 277.6638136 -184.13514532 271.68225385 -184.13037109 265.70068359 C-184.12492982 258.80412475 -184.12669296 251.90759548 -184.1321975 245.01103735 C-184.13674846 239.06936056 -184.13736949 233.12769262 -184.13475883 227.18601465 C-184.13320695 223.64625724 -184.13297224 220.1065137 -184.13629532 216.5667572 C-184.13974396 212.61806099 -184.13495196 208.6693974 -184.12939453 204.72070312 C-184.13141876 203.56095474 -184.13344299 202.40120636 -184.13552856 201.20631409 C-184.11953382 195.05310675 -183.81005306 189.10110314 -183 183 C-180.03 183 -177.06 183 -174 183 C-174 173.76 -174 164.52 -174 155 C-171.03 155 -168.06 155 -165 155 C-165 149.06 -165 143.12 -165 137 C-162.03 137 -159.06 137 -156 137 C-156 131.06 -156 125.12 -156 119 C-153.03 119 -150.06 119 -147 119 C-147 115.7 -147 112.4 -147 109 C-144.03 109 -141.06 109 -138 109 C-138 103.39 -138 97.78 -138 92 C-152.85 92 -167.7 92 -183 92 C-184.12698037 81.85717664 -184.12698037 81.85717664 -184.1328125 78.28125 C-184.13410156 77.49363281 -184.13539063 76.70601563 -184.13671875 75.89453125 C-184.13285156 75.10433594 -184.12898438 74.31414062 -184.125 73.5 C-184.12886719 72.70980469 -184.13273437 71.91960937 -184.13671875 71.10546875 C-184.13542969 70.31785156 -184.13414062 69.53023438 -184.1328125 68.71875 C-184.13168457 68.02716797 -184.13055664 67.33558594 -184.12939453 66.62304688 C-183.93760652 62.73517818 -183.42986535 58.86878811 -183 55 C-140.43 55 -97.86 55 -54 55 C-53.9690625 84.143125 -53.9690625 84.143125 -53.9375 113.875 C-53.928396 119.99659668 -53.91929199 126.11819336 -53.90991211 132.42529297 C-53.90539551 139.93383789 -53.90539551 139.93383789 -53.90455627 143.45535278 C-53.90302652 145.90074852 -53.89952158 148.34614352 -53.89442444 150.79153442 C-53.88706898 154.50800882 -53.88609522 158.22443735 -53.88647461 161.94091797 C-53.8828765 163.01977201 -53.87927839 164.09862606 -53.87557125 165.21017265 C-53.88417097 171.5340972 -54.23544187 177.72163365 -55 184 C-60.10863896 184.0246501 -65.21724359 184.04283607 -70.32592773 184.05493164 C-72.06519168 184.05997204 -73.80445136 184.0668043 -75.54370117 184.07543945 C-78.03825937 184.08751792 -80.53276173 184.09323108 -83.02734375 184.09765625 C-83.80963852 184.10281754 -84.59193329 184.10797882 -85.39793396 184.11329651 C-87.26567114 184.11349226 -89.13329204 184.06199694 -91 184 C-92 183 -92 183 -92.12025452 180.82969666 C-92.11803391 179.87261307 -92.11581329 178.91552948 -92.11352539 177.92944336 C-92.11341209 176.30787575 -92.11341209 176.30787575 -92.11329651 174.65354919 C-92.10813522 173.4775264 -92.10297394 172.3015036 -92.09765625 171.08984375 C-92.0962413 169.89267227 -92.09482635 168.69550079 -92.09336853 167.46205139 C-92.08774979 163.62050934 -92.07519411 159.77902457 -92.0625 155.9375 C-92.05748741 153.34049563 -92.05292409 150.74349035 -92.04882812 148.14648438 C-92.03777427 141.76430321 -92.02101792 135.3821557 -92 129 C-94.64 129 -97.28 129 -100 129 C-100 131.97 -100 134.94 -100 138 C-102.97 138 -105.94 138 -109 138 C-109 143.94 -109 149.88 -109 156 C-112.3 156 -115.6 156 -119 156 C-119 161.94 -119 167.88 -119 174 C-121.97 174 -124.94 174 -128 174 C-128 183.24 -128 192.48 -128 202 C-130.97 202 -133.94 202 -137 202 C-137 240.94 -137 279.88 -137 320 C-134.03 320 -131.06 320 -128 320 C-128 326.27 -128 332.54 -128 339 C-125.03 339 -122.06 339 -119 339 C-119 344.94 -119 350.88 -119 357 C-115.7 357 -112.4 357 -109 357 C-109 362.94 -109 368.88 -109 375 C-106.03 375 -103.06 375 -100 375 C-100 377.97 -100 380.94 -100 384 C-97.03 384 -94.06 384 -91 384 C-91 387.3 -91 390.6 -91 394 C-88.36 394 -85.72 394 -83 394 C-82.21460891 400.18495487 -82 405.64793666 -82 412 C-76.06 412 -70.12 412 -64 412 C-64 414.97 -64 417.94 -64 421 C-60.7 421 -57.4 421 -54 421 C-54 423.97 -54 426.94 -54 430 C-51.03 430 -48.06 430 -45 430 C-45 432.97 -45 435.94 -45 439 C-39.06 439 -33.12 439 -27 439 C-27 441.97 -27 444.94 -27 448 C-21.06 448 -15.12 448 -9 448 C-9 451.3 -9 454.6 -9 458 C-2.73 458 3.54 458 10 458 C10 460.97 10 463.94 10 467 C51.91 467 93.82 467 137 467 C137 464.03 137 461.06 137 458 C142.94 458 148.88 458 155 458 C155 455.03 155 452.06 155 449 C156 448 156 448 157.76586914 447.88647461 C158.88916626 447.89432983 158.88916626 447.89432983 160.03515625 447.90234375 C160.84404297 447.90556641 161.65292969 447.90878906 162.48632812 447.91210938 C163.33646484 447.92048828 164.18660156 447.92886719 165.0625 447.9375 C165.91650391 447.94201172 166.77050781 447.94652344 167.65039062 447.95117188 C169.76695663 447.96299627 171.88348685 447.98093231 174 448 C174 445.03 174 442.06 174 439 C179.94 439 185.88 439 192 439 C192 436.03 192 433.06 192 430 C194.97 430 197.94 430 201 430 C201 427.03 201 424.06 201 421 C204.3 421 207.6 421 211 421 C211 418.03 211 415.06 211 412 C216.94 412 222.88 412 229 412 C229 406.06 229 400.12 229 394 C231.97 394 234.94 394 238 394 C238 390.7 238 387.4 238 384 C240.97 384 243.94 384 247 384 C247 381.03 247 378.06 247 375 C249.97 375 252.94 375 256 375 C256 369.06 256 363.12 256 357 C258.97 357 261.94 357 265 357 C265 351.06 265 345.12 265 339 C268.3 339 271.6 339 275 339 C275 330.09 275 321.18 275 312 C277.97 312 280.94 312 284 312 C284 275.37 284 238.74 284 201 C281.03 201 278.06 201 275 201 C275 192.09 275 183.18 275 174 C271.7 174 268.4 174 265 174 C265 168.06 265 162.12 265 156 C262.03 156 259.06 156 256 156 C256 150.06 256 144.12 256 138 C253.03 138 250.06 138 247 138 C247 135.03 247 132.06 247 129 C244.03 129 241.06 129 238 129 C238 125.7 238 122.4 238 119 C235.03 119 232.06 119 229 119 C229 113.06 229 107.12 229 101 C226.03 101 223.06 101 220 101 C216.97653475 100.76774478 214.01029677 100.38225991 211 100 C211 97.36 211 94.72 211 92 C207.7 92 204.4 92 201 92 C201 89.03 201 86.06 201 83 C198.03 83 195.06 83 192 83 C192 80.03 192 77.06 192 74 C186.06 74 180.12 74 174 74 C174 71.03 174 68.06 174 65 C172.71222656 65.01160156 171.42445313 65.02320312 170.09765625 65.03515625 C168.41927228 65.0445327 166.74088674 65.05363305 165.0625 65.0625 C163.78729492 65.07506836 163.78729492 65.07506836 162.48632812 65.08789062 C161.67744141 65.09111328 160.86855469 65.09433594 160.03515625 65.09765625 C159.2862915 65.10289307 158.53742676 65.10812988 157.76586914 65.11352539 C156 65 156 65 155 64 C155 61.03 155 58.06 155 55 C149.06 55 143.12 55 137 55 C137 52.03 137 49.06 137 46 C95.09 46 53.18 46 10 46 C10 48.97 10 51.94 10 55 C-5.51 55 -21.02 55 -37 55 C-37 52.03 -37 49.06 -37 46 C-39.97 46 -42.94 46 -46 46 C-46 39.73 -46 33.46 -46 27 C-43.03 27 -40.06 27 -37 27 C-37 24.03 -37 21.06 -37 18 C-34.03 18 -31.06 18 -28 18 C-28 15.03 -28 12.06 -28 9 C-18.76 9 -9.52 9 0 9 C0 6.03 0 3.06 0 0 Z M495 37 C495 72.97 495 108.94 495 146 C506.88 146 518.76 146 531 146 C531 110.03 531 74.06 531 37 C519.12 37 507.24 37 495 37 Z M312 385 C312 415.03 312 445.06 312 476 C342.03 476 372.06 476 403 476 C403 445.97 403 415.94 403 385 C372.97 385 342.94 385 312 385 Z M440 385 C440 415.03 440 445.06 440 476 C470.03 476 500.06 476 531 476 C531 445.97 531 415.94 531 385 C500.97 385 470.94 385 440 385 Z M56 513 C56 543.03 56 573.06 56 604 C85.7 604 115.4 604 146 604 C146 573.97 146 543.94 146 513 C116.3 513 86.6 513 56 513 Z M184 513 C184 543.03 184 573.06 184 604 C214.03 604 244.06 604 275 604 C275 573.97 275 543.94 275 513 C244.97 513 214.94 513 184 513 Z M312 513 C312 543.03 312 573.06 312 604 C342.03 604 372.06 604 403 604 C403 573.97 403 543.94 403 513 C372.97 513 342.94 513 312 513 Z M440 513 C440 543.03 440 573.06 440 604 C470.03 604 500.06 604 531 604 C531 573.97 531 543.94 531 513 C500.97 513 470.94 513 440 513 Z M56 642 C56 672.03 56 702.06 56 733 C85.7 733 115.4 733 146 733 C146 702.97 146 672.94 146 642 C116.3 642 86.6 642 56 642 Z M184 642 C184 672.03 184 702.06 184 733 C214.03 733 244.06 733 275 733 C275 702.97 275 672.94 275 642 C244.97 642 214.94 642 184 642 Z M312 642 C312 672.03 312 702.06 312 733 C342.03 733 372.06 733 403 733 C403 702.97 403 672.94 403 642 C372.97 642 342.94 642 312 642 Z M440 642 C440 672.03 440 702.06 440 733 C470.03 733 500.06 733 531 733 C531 702.97 531 672.94 531 642 C500.97 642 470.94 642 440 642 Z " fill="#000000" transform="translate(237,0)"/>
<path d="M0 0 C12.21 0 24.42 0 37 0 C37 51.48 37 102.96 37 156 C43.27 156 49.54 156 56 156 C56 158.97 56 161.94 56 165 C58.97 165 61.94 165 65 165 C65 167.97 65 170.94 65 174 C67.97 174 70.94 174 74 174 C74 176.97 74 179.94 74 183 C79.94 183 85.88 183 92 183 C92 186.3 92 189.6 92 193 C94.97 193 97.94 193 101 193 C101 195.97 101 198.94 101 202 C103.97 202 106.94 202 110 202 C110 214.21 110 226.42 110 239 C97.79 239 85.58 239 73 239 C73 236.03 73 233.06 73 230 C67.06 230 61.12 230 55 230 C55 227.03 55 224.06 55 221 C51.7 221 48.4 221 45 221 C45 218.03 45 215.06 45 212 C42.03 212 39.06 212 36 212 C36 209.03 36 206.06 36 203 C30.06 203 24.12 203 18 203 C18 199.7 18 196.4 18 193 C15.03 193 12.06 193 9 193 C9 190.03 9 187.06 9 184 C6.03 184 3.06 184 0 184 C0 123.28 0 62.56 0 0 Z " fill="#000000" transform="translate(292,91)"/>
</svg>
